<svg width="156" height="156" viewBox="0 0 156 156" fill="none" xmlns="http://www.w3.org/2000/svg">
<g clip-path="url(#clip0_44_3)">
<path d="M137.75 58.5V123.5M33.75 58.5V123.5M14.25 58.5V123.5M118.25 58.5V123.5M11 136.5H141M-2 152.75H154M150.75 40.625V45.5H1.25V40.625C33.75 29.25 53.25 19.5 74.375 3.25H77.625C98.75 19.5 118.25 29.25 150.75 40.625Z" stroke="white" stroke-width="6"/>
<path d="M69.5455 67H95L92.4545 72.1111H84.1564C85.3782 73.5933 86.2945 75.3311 86.8291 77.2222H95L92.4545 82.3333H87.3636C87.0482 85.5195 85.6697 88.5052 83.4519 90.806C81.2341 93.1069 78.307 94.5879 75.1455 95.0089V95.1111H73.3636L88.6364 113H82.2727L67 95.1111V90H73.3636C77.8436 90 81.56 86.6778 82.1709 82.3333H67L69.5455 77.2222H81.4073C79.9818 74.2067 76.9273 72.1111 73.3636 72.1111H67L69.5455 67Z" fill="#D30427"/>
</g>
<defs>
<clipPath id="clip0_44_3">
<rect width="156" height="156" fill="white"/>
</clipPath>
</defs>
</svg>
