<svg width="57" height="57" viewBox="0 0 57 57" fill="none" xmlns="http://www.w3.org/2000/svg">
<path d="M28.5 54.0312C42.6005 54.0312 54.0312 42.6005 54.0312 28.5C54.0312 14.3995 42.6005 2.96875 28.5 2.96875C14.3995 2.96875 2.96875 14.3995 2.96875 28.5C2.96875 42.6005 14.3995 54.0312 28.5 54.0312Z" stroke="white" stroke-width="2" stroke-linecap="round" stroke-linejoin="round"/>
<path d="M27.8279 29.5319L29.4773 38.8847M12.3357 41.9389L10.6875 32.585L13.7227 32.0506C14.5508 31.9186 15.3975 32.1162 16.0816 32.601C16.7657 33.0859 17.2326 33.8194 17.3823 34.6444C17.532 35.4694 17.3526 36.3202 16.8825 37.0145C16.4125 37.7088 15.6891 38.1913 14.8675 38.3586L14.8366 38.3634L11.8014 38.8978M20.7836 40.4486L19.1342 31.0947L22.1742 30.5603C22.9979 30.4369 23.8373 30.6389 24.5147 31.1235C25.1921 31.6081 25.6543 32.3373 25.8036 33.1567C25.9528 33.9762 25.7773 34.8215 25.3142 35.5138C24.8511 36.2061 24.1368 36.691 23.3225 36.8659L23.2869 36.8731L20.2469 37.4086M23.5089 36.8267L26.9788 39.3549M47.291 34.5729C47.0617 34.9929 46.7398 35.3552 46.3497 35.6323C45.9596 35.9095 45.5116 36.0942 45.0395 36.1724C44.2071 36.3226 43.3492 36.1359 42.6544 35.6536C41.9596 35.1712 41.4848 34.4327 41.3345 33.6003L41.3286 33.5742L40.793 30.5342C40.7177 30.1195 40.7253 29.694 40.8153 29.2823C40.9053 28.8705 41.0759 28.4807 41.3174 28.1352C41.5588 27.7898 41.8663 27.4956 42.222 27.2696C42.5778 27.0436 42.9748 26.8903 43.3901 26.8185C43.8609 26.7446 44.3422 26.7721 44.8016 26.8993C45.2609 27.0265 45.6878 27.2504 46.0536 27.5559M39.4286 31.0163L43.4055 30.3157M39.8406 33.3533L43.8176 32.6527M37.6663 34.2202C37.8164 35.0526 37.6298 35.9105 37.1475 36.6053C36.6651 37.3001 35.9265 37.7749 35.0942 37.9252L35.0669 37.9311C34.2345 38.0813 33.3766 37.8946 32.6818 37.4123C31.987 36.9299 31.5122 36.1914 31.3619 35.359L31.3571 35.3329L30.8002 32.1741C30.7251 31.7626 30.7318 31.3403 30.82 30.9313C30.9081 30.5224 31.076 30.1348 31.314 29.7908C31.552 29.4467 31.8554 29.1529 32.2069 28.9261C32.5585 28.6994 32.9512 28.5441 33.3628 28.4691L33.3984 28.462C33.8074 28.3901 34.2267 28.4013 34.6312 28.495C35.0358 28.5887 35.4173 28.7629 35.753 29.0073C36.0887 29.2517 36.3718 29.5612 36.5852 29.9174C36.7987 30.2736 36.9382 30.6691 36.9954 31.0804M34.4399 16.0681L40.6386 14.9756M39.2492 24.8639L37.5986 15.5111M15.6097 24.2654C15.9169 24.2115 16.2317 24.2187 16.5362 24.2864C16.8406 24.3542 17.1287 24.4813 17.384 24.6605C17.6394 24.8396 17.8569 25.0673 18.0243 25.3305C18.1916 25.5937 18.3055 25.8873 18.3593 26.1945C18.4132 26.5017 18.4061 26.8165 18.3383 27.1209C18.2705 27.4254 18.1434 27.7135 17.9643 27.9688C17.7851 28.2242 17.5575 28.4417 17.2943 28.609C17.0311 28.7764 16.7375 28.8902 16.4303 28.9441L12.578 29.6246L10.9274 20.2706L14.7856 19.5902C15.0957 19.5287 15.415 19.5298 15.7247 19.5933C16.0345 19.6569 16.3284 19.7817 16.5892 19.9605C16.85 20.1392 17.0725 20.3682 17.2436 20.6341C17.4147 20.9 17.5309 21.1974 17.5855 21.5089C17.6401 21.8203 17.6319 22.1395 17.5614 22.4477C17.491 22.756 17.3596 23.047 17.1751 23.3038C16.9906 23.5606 16.7567 23.7779 16.4871 23.943C16.2174 24.1082 15.9175 24.2177 15.6049 24.2654H15.6097ZM15.6097 24.2654L11.7527 24.9458M25.8744 27.1391L21.1992 27.9644L19.5486 18.6117L24.225 17.7876M20.3739 23.2881L23.4139 22.7513M27.8374 25.7569C28.1759 26.0576 28.5817 26.2726 29.0206 26.3838C29.4595 26.495 29.9188 26.4991 30.3596 26.3958L31.7609 26.1488C32.0684 26.0946 32.3623 25.9803 32.6257 25.8125C32.8891 25.6447 33.1168 25.4266 33.2959 25.1708C33.475 24.9149 33.6019 24.6263 33.6694 24.3214C33.7369 24.0165 33.7437 23.7013 33.6894 23.3938C33.5788 22.7735 33.2265 22.2225 32.71 21.8618C32.1934 21.5011 31.5548 21.3601 30.9344 21.47L29.4144 21.7384C28.7947 21.8465 28.1575 21.7046 27.6422 21.3438C27.1269 20.983 26.7757 20.4327 26.6653 19.8134C26.557 19.1929 26.6993 18.5547 27.0611 18.0391C27.4229 17.5234 27.9746 17.1724 28.595 17.0632L29.9963 16.8162C30.4361 16.6866 30.9026 16.6776 31.3471 16.79C31.7917 16.9024 32.1978 17.1321 32.5233 17.4551" stroke="#D30427" stroke-width="2" stroke-linecap="round" stroke-linejoin="round"/>
</svg>
