<svg width="57" height="57" viewBox="0 0 57 57" fill="none" xmlns="http://www.w3.org/2000/svg">
<path d="M30.3691 13.7916C30.6946 13.9265 30.9729 14.1548 31.1686 14.4478C31.3643 14.7407 31.4688 15.0852 31.4687 15.4375V24.9375C31.4687 25.4099 31.2811 25.863 30.947 26.197C30.613 26.5311 30.1599 26.7187 29.6875 26.7187C29.2151 26.7187 28.762 26.5311 28.428 26.197C28.0939 25.863 27.9062 25.4099 27.9062 24.9375V19.7362L27.3837 20.2587C27.2207 20.4338 27.024 20.5741 26.8055 20.6715C26.587 20.7688 26.3512 20.8212 26.112 20.8254C25.8728 20.8296 25.6353 20.7856 25.4135 20.696C25.1917 20.6065 24.9902 20.4731 24.821 20.304C24.6519 20.1348 24.5185 19.9333 24.429 19.7115C24.3394 19.4897 24.2954 19.2522 24.2996 19.013C24.3038 18.7738 24.3562 18.538 24.4535 18.3195C24.5509 18.101 24.6912 17.9043 24.8662 17.7412L28.4288 14.1787C28.6777 13.9296 28.9949 13.7599 29.3402 13.691C29.6856 13.6221 30.0437 13.6571 30.3691 13.7916Z" fill="#D30427"/>
<path fill-rule="evenodd" clip-rule="evenodd" d="M17.8078 3.81663C21.3421 3.23726 24.9185 2.95365 28.5 2.96875C32.8415 2.96875 36.4301 3.35113 39.1923 3.81663L39.5129 3.87125C41.9116 4.27263 43.9066 4.6075 45.4646 6.5265C46.4645 7.75913 46.7875 9.0915 46.8611 10.5759L48.0296 10.9654C49.1292 11.3311 50.0959 11.6541 50.8582 12.0104C51.6847 12.3951 52.4424 12.8891 53.0219 13.6943C53.6014 14.497 53.8317 15.3734 53.9362 16.2783C54.0312 17.1166 54.0312 18.1307 54.0312 19.2945V19.6365C54.0312 20.5912 54.0312 21.4344 53.96 22.1397C53.884 22.9021 53.7154 23.6455 53.295 24.3628C52.8699 25.0824 52.3022 25.5906 51.6729 26.0276C51.091 26.4314 50.3548 26.8423 49.5187 27.3054L43.2487 30.7895C41.9662 33.3094 40.2087 35.5561 37.7863 37.1783C35.7081 38.5724 33.2215 39.4559 30.2812 39.7076V44.5312H33.6775C34.6384 44.5313 35.5696 44.8642 36.3126 45.4735C37.0557 46.0827 37.5647 46.9306 37.753 47.8729L38.2731 50.4688H42.75C43.2224 50.4688 43.6755 50.6564 44.0095 50.9905C44.3436 51.3245 44.5312 51.7776 44.5312 52.25C44.5312 52.7224 44.3436 53.1755 44.0095 53.5095C43.6755 53.8436 43.2224 54.0312 42.75 54.0312H14.25C13.7776 54.0312 13.3245 53.8436 12.9905 53.5095C12.6564 53.1755 12.4688 52.7224 12.4688 52.25C12.4688 51.7776 12.6564 51.3245 12.9905 50.9905C13.3245 50.6564 13.7776 50.4688 14.25 50.4688H18.7269L19.247 47.8729C19.4353 46.9306 19.9443 46.0827 20.6874 45.4735C21.4304 44.8642 22.3616 44.5313 23.3225 44.5312H26.7188V39.7076C23.7785 39.4559 21.2919 38.5724 19.2138 37.1806C16.7936 35.5561 15.0337 33.3094 13.7513 30.7895L7.48125 27.3054C6.74345 26.9137 6.02461 26.4873 5.32713 26.0276C4.67026 25.6008 4.1169 25.0329 3.70737 24.3651C3.32163 23.6824 3.09359 22.9221 3.04 22.1397C2.96875 21.4344 2.96875 20.5912 2.96875 19.6365V19.2921C2.96875 18.1331 2.96875 17.1166 3.06375 16.2783C3.16825 15.3734 3.39625 14.497 3.97812 13.6943C4.55762 12.8891 5.31525 12.3951 6.13938 12.008C6.9065 11.6518 7.87075 11.3311 8.97038 10.9654L10.1389 10.5759C10.2125 9.08913 10.5355 7.75913 11.5354 6.5265C13.0957 4.60513 15.0884 4.27025 17.4895 3.87125L17.8078 3.81663ZM22.3606 50.4688H34.6394L34.2594 48.5711C34.2325 48.4366 34.1598 48.3155 34.0537 48.2285C33.9477 48.1414 33.8147 48.0938 33.6775 48.0938H23.3225C23.1853 48.0938 23.0523 48.1414 22.9463 48.2285C22.8402 48.3155 22.7675 48.4366 22.7406 48.5711L22.3606 50.4688ZM10.2172 14.3046C10.3882 17.9146 10.7944 21.9046 11.8109 25.6334L9.27913 24.2297C8.35525 23.7144 7.77575 23.3914 7.35775 23.1016C6.973 22.8333 6.84713 22.6741 6.77825 22.5554C6.707 22.4366 6.631 22.2514 6.5835 21.7859C6.53315 21.0444 6.51571 20.3011 6.53125 19.5581V19.3848C6.53125 18.1046 6.53362 17.2948 6.6025 16.682C6.669 16.1168 6.7735 15.9054 6.8685 15.7771C6.96112 15.6465 7.12737 15.4803 7.64275 15.2404C8.20325 14.9791 8.97275 14.7203 10.184 14.3141L10.2172 14.3046ZM45.1891 25.6334L47.7209 24.2297C48.6448 23.7144 49.2243 23.3914 49.6423 23.1016C50.027 22.8333 50.1529 22.6741 50.2217 22.5554C50.293 22.4366 50.369 22.2514 50.4165 21.7859C50.4664 21.2776 50.4688 20.615 50.4688 19.5581V19.3848C50.4688 18.1046 50.4664 17.2948 50.3975 16.682C50.331 16.1168 50.2265 15.9054 50.1315 15.7771C50.0389 15.6465 49.8726 15.4803 49.3573 15.2404C48.7967 14.9791 48.0272 14.7203 46.816 14.3141L46.7827 14.3046C46.6141 17.9146 46.2033 21.9046 45.1891 25.6334ZM28.5 6.53125C24.3675 6.53125 20.9784 6.89463 18.4015 7.32925C15.5349 7.81375 14.934 7.99425 14.3022 8.77325C13.68 9.538 13.6206 10.2648 13.7465 13.4829C13.9602 18.8456 14.668 24.6359 16.8577 29.0391C17.9408 31.2099 19.3562 32.9864 21.1992 34.2214C23.028 35.4493 25.3911 36.2188 28.5 36.2188C31.6112 36.2188 33.972 35.4493 35.8031 34.2214C37.6461 32.9864 39.0592 31.2099 40.1399 29.0368C42.332 24.6359 43.0397 18.848 43.2511 13.4805C43.3818 10.2648 43.3224 9.538 42.7001 8.77325C42.0684 7.99425 41.4651 7.81375 38.5985 7.32925C35.2604 6.7831 31.8825 6.51618 28.5 6.53125Z" fill="white"/>
</svg>
