<svg width="35" height="35" viewBox="0 0 35 35" fill="none" xmlns="http://www.w3.org/2000/svg">
<g clip-path="url(#clip0_119_52)">
<path d="M29.1667 7.29169C29.5534 7.29169 29.9244 7.44533 30.1979 7.71882C30.4714 7.99231 30.625 8.36325 30.625 8.75002C30.625 9.13679 30.4714 9.50773 30.1979 9.78122C29.9244 10.0547 29.5534 10.2084 29.1667 10.2084H27.7083L27.704 10.3119L26.3433 29.3738C26.291 30.1096 25.9617 30.7983 25.4218 31.3011C24.882 31.8038 24.1717 32.0834 23.434 32.0834H11.5646C10.8269 32.0834 10.1166 31.8038 9.57671 31.3011C9.03686 30.7983 8.70759 30.1096 8.65521 29.3738L7.29458 10.3134C7.29237 10.2784 7.2914 10.2434 7.29167 10.2084H5.83333C5.44656 10.2084 5.07563 10.0547 4.80214 9.78122C4.52865 9.50773 4.375 9.13679 4.375 8.75002C4.375 8.36325 4.52865 7.99231 4.80214 7.71882C5.07563 7.44533 5.44656 7.29169 5.83333 7.29169H29.1667ZM20.4167 2.91669C20.8034 2.91669 21.1744 3.07033 21.4479 3.34382C21.7214 3.61731 21.875 3.98825 21.875 4.37502C21.875 4.76179 21.7214 5.13273 21.4479 5.40622C21.1744 5.67971 20.8034 5.83335 20.4167 5.83335H14.5833C14.1966 5.83335 13.8256 5.67971 13.5521 5.40622C13.2786 5.13273 13.125 4.76179 13.125 4.37502C13.125 3.98825 13.2786 3.61731 13.5521 3.34382C13.8256 3.07033 14.1966 2.91669 14.5833 2.91669H20.4167Z" fill="#D30427"/>
</g>
<defs>
<clipPath id="clip0_119_52">
<rect width="35" height="35" fill="white"/>
</clipPath>
</defs>
</svg>
