<svg width="191" height="83" viewBox="0 0 191 83" fill="none" xmlns="http://www.w3.org/2000/svg">
<path d="M88.748 26.382C80.8758 29.0887 76.683 32.3365 71.5436 39.8507C81.5843 32.0325 111.025 44.918 128.704 24.5383C107.687 41.2582 96.3988 31.5926 80.4813 34.4825C82.2147 31.1814 83.9914 29.6021 88.748 26.382Z" fill="#D30427" stroke="#D30427" stroke-width="0.379962"/>
<path d="M127.416 57.8073C140.128 44.8845 155.96 49.9531 157.474 64.7944L162.18 62.5247C160.232 49.7024 140.456 38.0429 127.416 57.8073Z" fill="#D30427" stroke="#D30427" stroke-width="0.379962"/>
<path d="M121.2 16.5967C158.147 33.562 178.224 31.7085 181.138 33.6862C177.837 33.986 176.675 38.1016 174.834 41.5189C176.048 37.4884 175.993 37.2865 176.521 35.0213C153.786 33.8685 139.877 27.0375 121.2 16.5967Z" fill="#D30427" stroke="#D30427" stroke-width="0.379962"/>
<path d="M155.387 66.9751C163.428 58.6392 175.426 63.0746 179.362 56.8282C183.299 50.5819 174.39 42.142 174.39 42.142C174.39 42.142 179.781 49.5225 175.455 55.4041C171.129 61.2857 161.972 56.5372 155.387 66.9751Z" fill="#D30427" stroke="#D30427" stroke-width="0.379962"/>
<path d="M64.1028 32.4401L69.1643 32.6182C96.9489 6.47747 105.039 22.1152 130.879 18.4659C104.785 18.5721 93.3316 7.1954 64.1028 32.4401Z" fill="#D30427" stroke="#D30427" stroke-width="0.379962"/>
<path d="M71.3675 27.2576L68.97 32.42C54.1124 36.1908 37.0355 30.7658 18 51.9127C30.5152 30.9936 53.2398 32.5686 71.3675 27.2576Z" fill="#D30427" stroke="#D30427" stroke-width="0.379962"/>
<path d="M23.7718 66.2363L22.9076 68.9683H20.6517L24.1014 58.3335H27.1336L30.6712 68.9683H28.452L27.5511 66.2363H23.7718ZM25.5882 60.2964L24.2845 64.5444H27.0311L25.6908 60.2964H25.5882ZM36.2376 61.0068C37.3265 61.0068 38.1737 61.3438 38.7791 62.0176C39.3846 62.6914 39.6873 63.6484 39.6873 64.8887C39.6873 65.7578 39.514 66.5073 39.1673 67.1372C38.8206 67.7671 38.3299 68.2505 37.6952 68.5874C37.0604 68.9194 36.3084 69.0854 35.4393 69.0854C35.0291 69.0854 34.5897 69.0317 34.1209 68.9243V72.4033H31.8724V61.1094H33.5936L33.9378 62.0396C34.2699 61.6782 34.6165 61.417 34.9779 61.2559C35.3441 61.0898 35.764 61.0068 36.2376 61.0068ZM35.3075 67.5547C35.9862 67.5547 36.5062 67.335 36.8675 66.8955C37.2337 66.4561 37.4168 65.8115 37.4168 64.9619C37.4168 63.3799 36.8675 62.5913 35.7689 62.5962C35.3685 62.5962 35.0243 62.7036 34.7362 62.9185C34.453 63.1333 34.2479 63.436 34.1209 63.8267V67.3936C34.409 67.4619 34.6263 67.5059 34.7728 67.5254C34.9193 67.5449 35.0975 67.5547 35.3075 67.5547ZM43.3421 62.2007C44.0355 61.3901 44.9461 60.9849 46.0741 60.9849C46.8944 60.9849 47.5267 61.2266 47.971 61.71C48.4154 62.1885 48.6375 62.8672 48.6375 63.7461V68.9683H46.389V63.8706C46.389 63.4116 46.2987 63.0796 46.118 62.8745C45.9373 62.6694 45.6468 62.5669 45.2464 62.5669C44.8851 62.5669 44.5482 62.6499 44.2357 62.8159C43.9232 62.9771 43.6717 63.1968 43.4813 63.4751V68.9683H41.2254V61.1094H43.1004L43.3421 62.2007ZM53.5887 60.9556C54.6971 60.9556 55.5467 61.229 56.1375 61.7759C56.7284 62.3228 57.0238 63.1162 57.0238 64.1562V68.9683H55.1634L54.9071 68.0381C54.5848 68.3799 54.221 68.6411 53.8158 68.8218C53.4154 68.9976 52.9857 69.0854 52.5267 69.0854C51.7162 69.0854 51.0716 68.8755 50.5931 68.4556C50.1195 68.0356 49.8827 67.4717 49.8827 66.7637C49.8827 65.9434 50.2269 65.3037 50.9154 64.8447C51.6087 64.3857 52.5755 64.1562 53.8158 64.1562H54.7752V63.9585C54.7459 63.0503 54.2308 62.5962 53.2298 62.5962C52.888 62.5962 52.4925 62.6475 52.0433 62.75C51.5941 62.8477 51.1888 62.9746 50.8275 63.1309L50.3514 61.6147C50.869 61.4048 51.4134 61.2437 51.9847 61.1313C52.556 61.0142 53.0907 60.9556 53.5887 60.9556ZM54.0062 65.3867C53.3665 65.3867 52.8685 65.4966 52.5121 65.7163C52.1605 65.936 51.9847 66.2412 51.9847 66.6318C51.9847 66.9541 52.0824 67.2007 52.2777 67.3716C52.473 67.5376 52.7489 67.6206 53.1053 67.6206C53.4276 67.6206 53.7352 67.5498 54.0282 67.4082C54.326 67.2666 54.575 67.0762 54.7752 66.8369V65.3867H54.0062ZM95.6883 63.4458C96.3182 63.646 96.804 63.9561 97.1458 64.376C97.4876 64.7959 97.6585 65.3062 97.6585 65.9067C97.6585 66.8784 97.3094 67.6328 96.6112 68.1699C95.9178 68.7021 94.9413 68.9683 93.6815 68.9683H89.6165V58.3335H93.3812C94.6312 58.3335 95.5956 58.5801 96.2743 59.0732C96.953 59.5615 97.2923 60.25 97.2923 61.1387C97.2923 62.2275 96.7577 62.9673 95.6883 63.3579V63.4458ZM93.264 62.7134C94.4408 62.7134 95.0291 62.2373 95.0291 61.2852C95.0291 60.4062 94.4408 59.9668 93.264 59.9668H91.7625V62.7134H93.264ZM93.5643 67.335C94.1307 67.335 94.5702 67.1982 94.8827 66.9248C95.2 66.6465 95.3587 66.2583 95.3587 65.7603C95.3587 65.2817 95.1927 64.9204 94.8607 64.6763C94.5335 64.4272 94.0501 64.3027 93.4105 64.3027H91.7625V67.335H93.5643ZM102.236 60.9556C103.345 60.9556 104.194 61.229 104.785 61.7759C105.376 62.3228 105.671 63.1162 105.671 64.1562V68.9683H103.811L103.555 68.0381C103.232 68.3799 102.868 68.6411 102.463 68.8218C102.063 68.9976 101.633 69.0854 101.174 69.0854C100.364 69.0854 99.7191 68.8755 99.2406 68.4556C98.7669 68.0356 98.5301 67.4717 98.5301 66.7637C98.5301 65.9434 98.8744 65.3037 99.5628 64.8447C100.256 64.3857 101.223 64.1562 102.463 64.1562H103.423V63.9585C103.393 63.0503 102.878 62.5962 101.877 62.5962C101.535 62.5962 101.14 62.6475 100.691 62.75C100.242 62.8477 99.8363 62.9746 99.4749 63.1309L98.9989 61.6147C99.5164 61.4048 100.061 61.2437 100.632 61.1313C101.203 61.0142 101.738 60.9556 102.236 60.9556ZM102.654 65.3867C102.014 65.3867 101.516 65.4966 101.16 65.7163C100.808 65.936 100.632 66.2412 100.632 66.6318C100.632 66.9541 100.73 67.2007 100.925 67.3716C101.12 67.5376 101.396 67.6206 101.753 67.6206C102.075 67.6206 102.383 67.5498 102.676 67.4082C102.973 67.2666 103.223 67.0762 103.423 66.8369V65.3867H102.654ZM113.091 61.1094V62.457L109.443 67.3057H113.223V68.9683H106.938V67.5767L110.586 62.772H107.107V61.1094H113.091ZM117.661 60.9556C118.769 60.9556 119.619 61.229 120.21 61.7759C120.801 62.3228 121.096 63.1162 121.096 64.1562V68.9683H119.236L118.979 68.0381C118.657 68.3799 118.293 68.6411 117.888 68.8218C117.488 68.9976 117.058 69.0854 116.599 69.0854C115.788 69.0854 115.144 68.8755 114.665 68.4556C114.192 68.0356 113.955 67.4717 113.955 66.7637C113.955 65.9434 114.299 65.3037 114.988 64.8447C115.681 64.3857 116.648 64.1562 117.888 64.1562H118.848V63.9585C118.818 63.0503 118.303 62.5962 117.302 62.5962C116.96 62.5962 116.565 62.6475 116.116 62.75C115.666 62.8477 115.261 62.9746 114.9 63.1309L114.424 61.6147C114.941 61.4048 115.486 61.2437 116.057 61.1313C116.628 61.0142 117.163 60.9556 117.661 60.9556ZM118.078 65.3867C117.439 65.3867 116.941 65.4966 116.584 65.7163C116.233 65.936 116.057 66.2412 116.057 66.6318C116.057 66.9541 116.155 67.2007 116.35 67.3716C116.545 67.5376 116.821 67.6206 117.178 67.6206C117.5 67.6206 117.807 67.5498 118.1 67.4082C118.398 67.2666 118.647 67.0762 118.848 66.8369V65.3867H118.078ZM125.066 62.2007C125.559 61.3901 126.25 60.9849 127.139 60.9849C127.329 60.9849 127.49 60.9971 127.622 61.0215C127.759 61.041 127.932 61.0801 128.142 61.1387L127.886 63.1016C127.466 62.9502 127.095 62.877 126.772 62.8818C126.421 62.8818 126.123 62.9453 125.879 63.0723C125.635 63.1943 125.43 63.3896 125.264 63.6582V68.9683H123.008V61.1094H124.795L125.066 62.2007Z" fill="white"/>
<path d="M66.9701 58.2017C67.5316 58.2017 68.0907 58.2749 68.6473 58.4214C69.2088 58.563 69.7118 58.7632 70.1561 59.022L69.4749 60.6113C69.055 60.4111 68.6668 60.2671 68.3104 60.1792C67.9588 60.0864 67.6024 60.04 67.2411 60.04C66.2303 60.04 65.4613 60.3452 64.9339 60.9556C64.4115 61.5659 64.1502 62.4521 64.1502 63.6143C64.1502 64.7959 64.4115 65.6919 64.9339 66.3022C65.4613 66.9077 66.2303 67.2104 67.2411 67.2104C68.0223 67.2104 68.8377 67.0322 69.6873 66.6758L70.244 68.353C69.1454 68.8413 68.0443 69.0854 66.9408 69.0854C65.2806 69.0854 64.0086 68.6191 63.1248 67.6865C62.2411 66.749 61.7992 65.4062 61.7992 63.6582C61.7992 62.5303 62.0042 61.5562 62.4144 60.7358C62.8246 59.9155 63.4154 59.2881 64.1869 58.8535C64.9632 58.4189 65.891 58.2017 66.9701 58.2017ZM74.5213 60.9556C75.6297 60.9556 76.4793 61.229 77.0702 61.7759C77.661 62.3228 77.9564 63.1162 77.9564 64.1562V68.9683H76.096L75.8397 68.0381C75.5174 68.3799 75.1537 68.6411 74.7484 68.8218C74.348 68.9976 73.9183 69.0854 73.4593 69.0854C72.6488 69.0854 72.0042 68.8755 71.5257 68.4556C71.0521 68.0356 70.8153 67.4717 70.8153 66.7637C70.8153 65.9434 71.1595 65.3037 71.848 64.8447C72.5414 64.3857 73.5081 64.1562 74.7484 64.1562H75.7079V63.9585C75.6786 63.0503 75.1634 62.5962 74.1624 62.5962C73.8206 62.5962 73.4251 62.6475 72.9759 62.75C72.5267 62.8477 72.1214 62.9746 71.7601 63.1309L71.284 61.6147C71.8016 61.4048 72.346 61.2437 72.9173 61.1313C73.4886 61.0142 74.0233 60.9556 74.5213 60.9556ZM74.9388 65.3867C74.2992 65.3867 73.8011 65.4966 73.4447 65.7163C73.0931 65.936 72.9173 66.2412 72.9173 66.6318C72.9173 66.9541 73.015 67.2007 73.2103 67.3716C73.4056 67.5376 73.6815 67.6206 74.0379 67.6206C74.3602 67.6206 74.6678 67.5498 74.9608 67.4082C75.2586 67.2666 75.5077 67.0762 75.7079 66.8369V65.3867H74.9388ZM81.9261 62.2007C82.4193 61.3901 83.1102 60.9849 83.9989 60.9849C84.1893 60.9849 84.3504 60.9971 84.4823 61.0215C84.619 61.041 84.7923 61.0801 85.0023 61.1387L84.7459 63.1016C84.326 62.9502 83.9549 62.877 83.6327 62.8818C83.2811 62.8818 82.9832 62.9453 82.7391 63.0723C82.495 63.1943 82.2899 63.3896 82.1239 63.6582V68.9683H79.868V61.1094H81.6551L81.9261 62.2007Z" fill="#D30427"/>
</svg>
