<svg width="282" height="212" viewBox="0 0 282 212" fill="none" xmlns="http://www.w3.org/2000/svg">
<path d="M159.849 83.9471C151.977 86.6539 147.784 89.9017 142.645 97.4159C152.685 89.5977 182.125 102.483 199.805 82.1035C178.788 98.8233 167.5 89.1578 151.582 92.0477C153.316 88.7466 155.092 87.1673 159.849 83.9471Z" fill="#D30427" stroke="#D30427" stroke-width="0.379962"/>
<path d="M198.517 115.372C211.228 102.45 227.061 107.518 228.575 122.36L233.281 120.09C231.333 107.268 211.557 95.6081 198.517 115.372Z" fill="#D30427" stroke="#D30427" stroke-width="0.379962"/>
<path d="M192.301 74.1619C229.248 91.1272 249.325 89.2737 252.239 91.2513C248.938 91.5511 247.776 95.6668 245.935 99.084C247.149 95.0536 247.093 94.8517 247.622 92.5865C224.887 91.4337 210.978 84.6026 192.301 74.1619Z" fill="#D30427" stroke="#D30427" stroke-width="0.379962"/>
<path d="M226.488 124.54C234.529 116.204 246.526 120.64 250.463 114.393C254.4 108.147 245.491 99.7072 245.491 99.7072C245.491 99.7072 250.882 107.088 246.556 112.969C242.23 118.851 233.073 114.102 226.488 124.54Z" fill="#D30427" stroke="#D30427" stroke-width="0.379962"/>
<path d="M135.204 90.0052L140.265 90.1832C168.05 64.0425 176.139 79.6803 201.98 76.031C175.886 76.1371 164.432 64.7605 135.204 90.0052Z" fill="#D30427" stroke="#D30427" stroke-width="0.379962"/>
<path d="M142.468 84.8228L140.071 89.9852C125.213 93.756 108.136 88.331 89.1008 109.478C101.616 88.5588 124.341 90.1338 142.468 84.8228Z" fill="#D30427" stroke="#D30427" stroke-width="0.379962"/>
<path d="M94.8727 123.801L94.0084 126.533H91.7526L95.2023 115.899H98.2345L101.772 126.533H99.5529L98.652 123.801H94.8727ZM96.6891 117.861L95.3854 122.109H98.132L96.7916 117.861H96.6891ZM107.339 118.572C108.427 118.572 109.275 118.909 109.88 119.583C110.485 120.256 110.788 121.214 110.788 122.454C110.788 123.323 110.615 124.072 110.268 124.702C109.922 125.332 109.431 125.816 108.796 126.152C108.161 126.484 107.409 126.651 106.54 126.651C106.13 126.651 105.691 126.597 105.222 126.489V129.968H102.973V118.674H104.694L105.039 119.605C105.371 119.243 105.717 118.982 106.079 118.821C106.445 118.655 106.865 118.572 107.339 118.572ZM106.408 125.12C107.087 125.12 107.607 124.9 107.968 124.461C108.335 124.021 108.518 123.377 108.518 122.527C108.518 120.945 107.968 120.156 106.87 120.161C106.469 120.161 106.125 120.269 105.837 120.484C105.554 120.698 105.349 121.001 105.222 121.392V124.959C105.51 125.027 105.727 125.071 105.874 125.09C106.02 125.11 106.198 125.12 106.408 125.12ZM114.443 119.766C115.136 118.955 116.047 118.55 117.175 118.55C117.995 118.55 118.628 118.792 119.072 119.275C119.516 119.754 119.738 120.432 119.738 121.311V126.533H117.49V121.436C117.49 120.977 117.4 120.645 117.219 120.44C117.038 120.234 116.748 120.132 116.347 120.132C115.986 120.132 115.649 120.215 115.337 120.381C115.024 120.542 114.773 120.762 114.582 121.04V126.533H112.326V118.674H114.201L114.443 119.766ZM124.69 118.521C125.798 118.521 126.648 118.794 127.238 119.341C127.829 119.888 128.125 120.681 128.125 121.721V126.533H126.264L126.008 125.603C125.686 125.945 125.322 126.206 124.917 126.387C124.516 126.563 124.087 126.651 123.628 126.651C122.817 126.651 122.172 126.441 121.694 126.021C121.22 125.601 120.984 125.037 120.984 124.329C120.984 123.508 121.328 122.869 122.016 122.41C122.71 121.951 123.676 121.721 124.917 121.721H125.876V121.524C125.847 120.615 125.332 120.161 124.331 120.161C123.989 120.161 123.593 120.213 123.144 120.315C122.695 120.413 122.29 120.54 121.928 120.696L121.452 119.18C121.97 118.97 122.514 118.809 123.086 118.696C123.657 118.579 124.192 118.521 124.69 118.521ZM125.107 122.952C124.467 122.952 123.969 123.062 123.613 123.281C123.261 123.501 123.086 123.806 123.086 124.197C123.086 124.519 123.183 124.766 123.379 124.937C123.574 125.103 123.85 125.186 124.206 125.186C124.528 125.186 124.836 125.115 125.129 124.973C125.427 124.832 125.676 124.641 125.876 124.402V122.952H125.107ZM166.789 121.011C167.419 121.211 167.905 121.521 168.247 121.941C168.589 122.361 168.759 122.871 168.759 123.472C168.759 124.443 168.41 125.198 167.712 125.735C167.019 126.267 166.042 126.533 164.782 126.533H160.717V115.899H164.482C165.732 115.899 166.696 116.145 167.375 116.638C168.054 117.127 168.393 117.815 168.393 118.704C168.393 119.793 167.859 120.532 166.789 120.923V121.011ZM164.365 120.278C165.542 120.278 166.13 119.802 166.13 118.85C166.13 117.971 165.542 117.532 164.365 117.532H162.863V120.278H164.365ZM164.665 124.9C165.232 124.9 165.671 124.763 165.984 124.49C166.301 124.212 166.46 123.823 166.46 123.325C166.46 122.847 166.294 122.485 165.962 122.241C165.634 121.992 165.151 121.868 164.511 121.868H162.863V124.9H164.665ZM173.337 118.521C174.445 118.521 175.295 118.794 175.886 119.341C176.477 119.888 176.772 120.681 176.772 121.721V126.533H174.912L174.655 125.603C174.333 125.945 173.969 126.206 173.564 126.387C173.164 126.563 172.734 126.651 172.275 126.651C171.464 126.651 170.82 126.441 170.341 126.021C169.868 125.601 169.631 125.037 169.631 124.329C169.631 123.508 169.975 122.869 170.664 122.41C171.357 121.951 172.324 121.721 173.564 121.721H174.524V121.524C174.494 120.615 173.979 120.161 172.978 120.161C172.636 120.161 172.241 120.213 171.792 120.315C171.342 120.413 170.937 120.54 170.576 120.696L170.1 119.18C170.617 118.97 171.162 118.809 171.733 118.696C172.304 118.579 172.839 118.521 173.337 118.521ZM173.755 122.952C173.115 122.952 172.617 123.062 172.26 123.281C171.909 123.501 171.733 123.806 171.733 124.197C171.733 124.519 171.831 124.766 172.026 124.937C172.221 125.103 172.497 125.186 172.854 125.186C173.176 125.186 173.484 125.115 173.776 124.973C174.074 124.832 174.323 124.641 174.524 124.402V122.952H173.755ZM184.192 118.674V120.022L180.544 124.871H184.323V126.533H178.039V125.142L181.687 120.337H178.208V118.674H184.192ZM188.762 118.521C189.87 118.521 190.72 118.794 191.311 119.341C191.901 119.888 192.197 120.681 192.197 121.721V126.533H190.337L190.08 125.603C189.758 125.945 189.394 126.206 188.989 126.387C188.589 126.563 188.159 126.651 187.7 126.651C186.889 126.651 186.245 126.441 185.766 126.021C185.293 125.601 185.056 125.037 185.056 124.329C185.056 123.508 185.4 122.869 186.089 122.41C186.782 121.951 187.749 121.721 188.989 121.721H189.948V121.524C189.919 120.615 189.404 120.161 188.403 120.161C188.061 120.161 187.666 120.213 187.216 120.315C186.767 120.413 186.362 120.54 186.001 120.696L185.525 119.18C186.042 118.97 186.587 118.809 187.158 118.696C187.729 118.579 188.264 118.521 188.762 118.521ZM189.179 122.952C188.54 122.952 188.042 123.062 187.685 123.281C187.334 123.501 187.158 123.806 187.158 124.197C187.158 124.519 187.255 124.766 187.451 124.937C187.646 125.103 187.922 125.186 188.278 125.186C188.601 125.186 188.908 125.115 189.201 124.973C189.499 124.832 189.748 124.641 189.948 124.402V122.952H189.179ZM196.167 119.766C196.66 118.955 197.351 118.55 198.239 118.55C198.43 118.55 198.591 118.562 198.723 118.587C198.859 118.606 199.033 118.645 199.243 118.704L198.986 120.667C198.567 120.515 198.195 120.442 197.873 120.447C197.522 120.447 197.224 120.51 196.98 120.637C196.735 120.759 196.53 120.955 196.364 121.223V126.533H194.109V118.674H195.896L196.167 119.766Z" fill="white"/>
<path d="M138.071 115.767C138.632 115.767 139.192 115.84 139.748 115.986C140.31 116.128 140.813 116.328 141.257 116.587L140.576 118.176C140.156 117.976 139.768 117.832 139.411 117.744C139.06 117.651 138.703 117.605 138.342 117.605C137.331 117.605 136.562 117.91 136.035 118.521C135.512 119.131 135.251 120.017 135.251 121.179C135.251 122.361 135.512 123.257 136.035 123.867C136.562 124.473 137.331 124.776 138.342 124.776C139.123 124.776 139.939 124.597 140.788 124.241L141.345 125.918C140.246 126.406 139.145 126.651 138.042 126.651C136.381 126.651 135.109 126.184 134.226 125.252C133.342 124.314 132.9 122.971 132.9 121.223C132.9 120.095 133.105 119.121 133.515 118.301C133.925 117.481 134.516 116.853 135.288 116.419C136.064 115.984 136.992 115.767 138.071 115.767ZM145.622 118.521C146.731 118.521 147.58 118.794 148.171 119.341C148.762 119.888 149.057 120.681 149.057 121.721V126.533H147.197L146.941 125.603C146.618 125.945 146.255 126.206 145.849 126.387C145.449 126.563 145.019 126.651 144.56 126.651C143.75 126.651 143.105 126.441 142.627 126.021C142.153 125.601 141.916 125.037 141.916 124.329C141.916 123.508 142.26 122.869 142.949 122.41C143.642 121.951 144.609 121.721 145.849 121.721H146.809V121.524C146.779 120.615 146.264 120.161 145.263 120.161C144.922 120.161 144.526 120.213 144.077 120.315C143.628 120.413 143.222 120.54 142.861 120.696L142.385 119.18C142.902 118.97 143.447 118.809 144.018 118.696C144.589 118.579 145.124 118.521 145.622 118.521ZM146.04 122.952C145.4 122.952 144.902 123.062 144.546 123.281C144.194 123.501 144.018 123.806 144.018 124.197C144.018 124.519 144.116 124.766 144.311 124.937C144.506 125.103 144.782 125.186 145.139 125.186C145.461 125.186 145.769 125.115 146.062 124.973C146.359 124.832 146.609 124.641 146.809 124.402V122.952H146.04ZM153.027 119.766C153.52 118.955 154.211 118.55 155.1 118.55C155.29 118.55 155.451 118.562 155.583 118.587C155.72 118.606 155.893 118.645 156.103 118.704L155.847 120.667C155.427 120.515 155.056 120.442 154.734 120.447C154.382 120.447 154.084 120.51 153.84 120.637C153.596 120.759 153.391 120.955 153.225 121.223V126.533H150.969V118.674H152.756L153.027 119.766Z" fill="#D30427"/>
</svg>
