<svg width="31" height="31" viewBox="0 0 31 31" fill="none" xmlns="http://www.w3.org/2000/svg">
<path d="M20.5375 23.8312C22.2812 23.8312 23.7021 22.4104 23.7021 20.6666C23.7021 18.9229 22.2812 17.5021 20.5375 17.5021C18.7808 17.5021 17.3729 18.9229 17.3729 20.6666C17.3729 22.4104 18.7808 23.8312 20.5375 23.8312ZM27.2541 21.545L29.1658 23.0433C29.3337 23.1854 29.3854 23.4179 29.2691 23.6246L27.4608 26.7504C27.4066 26.8436 27.3208 26.9144 27.2189 26.95C27.1171 26.9855 27.0059 26.9834 26.9054 26.9441L24.6579 26.04C24.1929 26.4016 23.6762 26.6987 23.1337 26.9312L22.785 29.3208C22.7591 29.5404 22.5654 29.7083 22.3458 29.7083H18.7291C18.4966 29.7083 18.3158 29.5404 18.2771 29.3208L17.9412 26.9312C17.3858 26.6987 16.8821 26.4016 16.4171 26.04L14.1566 26.9441C13.9629 27.0216 13.7175 26.9441 13.6141 26.7504L11.8058 23.6246C11.7508 23.5313 11.731 23.4214 11.7499 23.3148C11.7689 23.2082 11.8253 23.1119 11.9091 23.0433L13.8208 21.545L13.7562 20.6666L13.8208 19.7754L11.9091 18.29C11.8258 18.2211 11.7696 18.1248 11.7507 18.0183C11.7318 17.9119 11.7513 17.8021 11.8058 17.7087L13.6141 14.5829C13.7175 14.3762 13.9629 14.2987 14.1566 14.3762L16.4171 15.2933C16.8821 14.9316 17.3858 14.6216 17.9412 14.4021L18.2771 11.9996C18.3158 11.7929 18.4966 11.625 18.7291 11.625H22.3458C22.5654 11.625 22.7591 11.7929 22.785 11.9996L23.1337 14.4021C23.6762 14.6216 24.1929 14.9316 24.6579 15.2933L26.9054 14.3762C27.125 14.2987 27.3446 14.3762 27.4608 14.5829L29.2691 17.7087C29.3854 17.9025 29.3337 18.1479 29.1658 18.29L27.2541 19.7754L27.3187 20.6666L27.2541 21.545ZM8.64123 10.4237C9.76498 10.4237 10.6691 9.51956 10.6691 8.39581C10.6691 7.27206 9.76498 6.35498 8.64123 6.35498C8.09997 6.35498 7.58087 6.57 7.19814 6.95273C6.81541 7.33546 6.6004 7.85455 6.6004 8.39581C6.6004 9.51956 7.51748 10.4237 8.64123 10.4237ZM12.9554 8.96415L14.2083 9.91998C14.2987 10.0104 14.3246 10.1654 14.2471 10.2946L13.0846 12.3096C13.02 12.4387 12.865 12.4904 12.7358 12.4387L11.2891 11.8575L10.3333 12.4258L10.0879 13.9629C10.0621 14.105 9.94582 14.2083 9.80373 14.2083H7.47873C7.32373 14.2083 7.20748 14.105 7.18165 13.9629L6.97498 12.4258L5.99331 11.8575L4.52082 12.4387C4.40457 12.4904 4.26248 12.4387 4.18498 12.3096L3.02248 10.2946C2.94498 10.1654 2.98373 10.0104 3.08707 9.91998L4.31415 8.96415L4.2754 8.39581L4.31415 7.82748L3.08707 6.87165C3.034 6.82675 2.99845 6.7646 2.98664 6.6961C2.97483 6.6276 2.98752 6.55714 3.02248 6.49706L4.18498 4.48206C4.26248 4.3529 4.40457 4.30123 4.52082 4.3529L5.9804 4.93415L6.97498 4.36581L7.18165 2.82873C7.20748 2.68665 7.32373 2.58331 7.47873 2.58331H9.80373C9.94582 2.58331 10.0621 2.68665 10.0879 2.82873L10.3333 4.36581L11.2891 4.93415L12.7358 4.3529C12.865 4.30123 13.02 4.3529 13.0846 4.48206L14.2471 6.49706C14.3246 6.62623 14.2987 6.78123 14.2083 6.87165L12.9554 7.82748L12.9941 8.39581L12.9554 8.96415Z" fill="#90D64A"/>
</svg>
