<svg width="191" height="82" viewBox="0 0 191 82" fill="none" xmlns="http://www.w3.org/2000/svg">
<path d="M88.748 25.382C80.8759 28.0887 76.683 31.3365 71.5437 38.8507C81.5844 31.0325 111.025 43.918 128.704 23.5383C107.687 40.2582 96.3988 30.5926 80.4813 33.4825C82.2147 30.1814 83.9914 28.6021 88.748 25.382Z" fill="#D30427" stroke="#D30427" stroke-width="0.379962"/>
<path d="M127.416 56.8073C140.128 43.8846 155.96 48.9532 157.474 63.7945L162.18 61.5248C160.232 48.7025 140.456 37.043 127.416 56.8073Z" fill="#D30427" stroke="#D30427" stroke-width="0.379962"/>
<path d="M121.2 15.5967C158.147 32.562 178.224 30.7085 181.138 32.6862C177.837 32.986 176.675 37.1016 174.834 40.5189C176.048 36.4884 175.993 36.2865 176.521 34.0213C153.786 32.8685 139.877 26.0375 121.2 15.5967Z" fill="#D30427" stroke="#D30427" stroke-width="0.379962"/>
<path d="M155.387 65.9751C163.428 57.6392 175.426 62.0746 179.362 55.8282C183.299 49.5819 174.39 41.142 174.39 41.142C174.39 41.142 179.781 48.5225 175.455 54.4041C171.129 60.2857 161.972 55.5372 155.387 65.9751Z" fill="#D30427" stroke="#D30427" stroke-width="0.379962"/>
<path d="M64.1028 31.4401L69.1643 31.6182C96.9489 5.47747 105.039 21.1152 130.879 17.4659C104.785 17.5721 93.3315 6.1954 64.1028 31.4401Z" fill="#D30427" stroke="#D30427" stroke-width="0.379962"/>
<path d="M71.3675 26.2576L68.97 31.42C54.1124 35.1908 37.0355 29.7658 18 50.9127C30.5152 29.9936 53.2397 31.5686 71.3675 26.2576Z" fill="#D30427" stroke="#D30427" stroke-width="0.379962"/>
<path d="M23.7718 65.2363L22.9076 67.9682H20.6517L24.1014 57.3334H27.1336L30.6712 67.9682H28.452L27.5511 65.2363H23.7718ZM25.5882 59.2963L24.2845 63.5444H27.0311L25.6908 59.2963H25.5882ZM36.2376 60.0068C37.3265 60.0068 38.1737 60.3437 38.7791 61.0175C39.3846 61.6913 39.6873 62.6484 39.6873 63.8886C39.6873 64.7578 39.514 65.5073 39.1673 66.1371C38.8206 66.767 38.3299 67.2504 37.6952 67.5873C37.0604 67.9194 36.3084 68.0854 35.4393 68.0854C35.0291 68.0854 34.5897 68.0317 34.1209 67.9243V71.4033H31.8724V60.1093H33.5936L33.9378 61.0395C34.2699 60.6782 34.6165 60.4169 34.9779 60.2558C35.3441 60.0898 35.764 60.0068 36.2376 60.0068ZM35.3075 66.5546C35.9862 66.5546 36.5062 66.3349 36.8675 65.8954C37.2337 65.456 37.4168 64.8115 37.4168 63.9619C37.4168 62.3798 36.8675 61.5912 35.7689 61.5961C35.3685 61.5961 35.0243 61.7036 34.7362 61.9184C34.453 62.1332 34.2479 62.436 34.1209 62.8266V66.3935C34.409 66.4619 34.6263 66.5058 34.7728 66.5253C34.9193 66.5449 35.0975 66.5546 35.3075 66.5546ZM43.3421 61.2006C44.0355 60.3901 44.9461 59.9848 46.0741 59.9848C46.8944 59.9848 47.5267 60.2265 47.971 60.7099C48.4154 61.1884 48.6375 61.8671 48.6375 62.746V67.9682H46.389V62.8705C46.389 62.4116 46.2987 62.0795 46.118 61.8745C45.9373 61.6694 45.6468 61.5668 45.2464 61.5668C44.8851 61.5668 44.5482 61.6498 44.2357 61.8159C43.9232 61.977 43.6717 62.1967 43.4813 62.475V67.9682H41.2254V60.1093H43.1004L43.3421 61.2006ZM53.5887 59.9555C54.6971 59.9555 55.5467 60.2289 56.1375 60.7758C56.7284 61.3227 57.0238 62.1161 57.0238 63.1562V67.9682H55.1634L54.9071 67.038C54.5848 67.3798 54.221 67.6411 53.8158 67.8217C53.4154 67.9975 52.9857 68.0854 52.5267 68.0854C51.7161 68.0854 51.0716 67.8754 50.5931 67.4555C50.1195 67.0356 49.8827 66.4716 49.8827 65.7636C49.8827 64.9433 50.2269 64.3036 50.9154 63.8447C51.6087 63.3857 52.5755 63.1562 53.8158 63.1562H54.7752V62.9584C54.7459 62.0502 54.2308 61.5961 53.2298 61.5961C52.888 61.5961 52.4925 61.6474 52.0433 61.7499C51.5941 61.8476 51.1888 61.9745 50.8275 62.1308L50.3514 60.6147C50.869 60.4047 51.4134 60.2436 51.9847 60.1313C52.556 60.0141 53.0907 59.9555 53.5887 59.9555ZM54.0062 64.3867C53.3665 64.3867 52.8685 64.4965 52.512 64.7162C52.1605 64.936 51.9847 65.2411 51.9847 65.6318C51.9847 65.954 52.0824 66.2006 52.2777 66.3715C52.473 66.5375 52.7489 66.6205 53.1053 66.6205C53.4276 66.6205 53.7352 66.5497 54.0282 66.4081C54.326 66.2665 54.575 66.0761 54.7752 65.8369V64.3867H54.0062ZM95.6883 62.4457C96.3182 62.6459 96.804 62.956 97.1458 63.3759C97.4876 63.7958 97.6585 64.3061 97.6585 64.9067C97.6585 65.8784 97.3094 66.6328 96.6112 67.1699C95.9178 67.7021 94.9412 67.9682 93.6815 67.9682H89.6165V57.3334H93.3812C94.6312 57.3334 95.5955 57.58 96.2743 58.0732C96.953 58.5615 97.2923 59.2499 97.2923 60.1386C97.2923 61.2275 96.7577 61.9672 95.6883 62.3578V62.4457ZM93.264 61.7133C94.4408 61.7133 95.0291 61.2372 95.0291 60.2851C95.0291 59.4062 94.4408 58.9667 93.264 58.9667H91.7625V61.7133H93.264ZM93.5643 66.3349C94.1307 66.3349 94.5702 66.1982 94.8827 65.9247C95.2 65.6464 95.3587 65.2582 95.3587 64.7602C95.3587 64.2817 95.1927 63.9203 94.8607 63.6762C94.5335 63.4272 94.0501 63.3027 93.4105 63.3027H91.7625V66.3349H93.5643ZM102.236 59.9555C103.345 59.9555 104.194 60.2289 104.785 60.7758C105.376 61.3227 105.671 62.1161 105.671 63.1562V67.9682H103.811L103.555 67.038C103.232 67.3798 102.868 67.6411 102.463 67.8217C102.063 67.9975 101.633 68.0854 101.174 68.0854C100.364 68.0854 99.7191 67.8754 99.2406 67.4555C98.7669 67.0356 98.5301 66.4716 98.5301 65.7636C98.5301 64.9433 98.8744 64.3036 99.5628 63.8447C100.256 63.3857 101.223 63.1562 102.463 63.1562H103.423V62.9584C103.393 62.0502 102.878 61.5961 101.877 61.5961C101.535 61.5961 101.14 61.6474 100.691 61.7499C100.242 61.8476 99.8363 61.9745 99.4749 62.1308L98.9989 60.6147C99.5164 60.4047 100.061 60.2436 100.632 60.1313C101.203 60.0141 101.738 59.9555 102.236 59.9555ZM102.654 64.3867C102.014 64.3867 101.516 64.4965 101.16 64.7162C100.808 64.936 100.632 65.2411 100.632 65.6318C100.632 65.954 100.73 66.2006 100.925 66.3715C101.12 66.5375 101.396 66.6205 101.753 66.6205C102.075 66.6205 102.383 66.5497 102.676 66.4081C102.973 66.2665 103.222 66.0761 103.423 65.8369V64.3867H102.654ZM113.091 60.1093V61.457L109.443 66.3056H113.222V67.9682H106.938V66.5766L110.586 61.7719H107.107V60.1093H113.091ZM117.661 59.9555C118.769 59.9555 119.619 60.2289 120.21 60.7758C120.801 61.3227 121.096 62.1161 121.096 63.1562V67.9682H119.236L118.979 67.038C118.657 67.3798 118.293 67.6411 117.888 67.8217C117.488 67.9975 117.058 68.0854 116.599 68.0854C115.788 68.0854 115.144 67.8754 114.665 67.4555C114.192 67.0356 113.955 66.4716 113.955 65.7636C113.955 64.9433 114.299 64.3036 114.988 63.8447C115.681 63.3857 116.648 63.1562 117.888 63.1562H118.847V62.9584C118.818 62.0502 118.303 61.5961 117.302 61.5961C116.96 61.5961 116.565 61.6474 116.116 61.7499C115.666 61.8476 115.261 61.9745 114.9 62.1308L114.424 60.6147C114.941 60.4047 115.486 60.2436 116.057 60.1313C116.628 60.0141 117.163 59.9555 117.661 59.9555ZM118.078 64.3867C117.439 64.3867 116.941 64.4965 116.584 64.7162C116.233 64.936 116.057 65.2411 116.057 65.6318C116.057 65.954 116.155 66.2006 116.35 66.3715C116.545 66.5375 116.821 66.6205 117.178 66.6205C117.5 66.6205 117.807 66.5497 118.1 66.4081C118.398 66.2665 118.647 66.0761 118.847 65.8369V64.3867H118.078ZM125.066 61.2006C125.559 60.3901 126.25 59.9848 127.139 59.9848C127.329 59.9848 127.49 59.997 127.622 60.0214C127.759 60.041 127.932 60.08 128.142 60.1386L127.886 62.1015C127.466 61.9501 127.095 61.8769 126.772 61.8818C126.421 61.8818 126.123 61.9453 125.879 62.0722C125.635 62.1943 125.43 62.3896 125.264 62.6581V67.9682H123.008V60.1093H124.795L125.066 61.2006Z" fill="white"/>
<path d="M66.9701 57.2016C67.5316 57.2016 68.0907 57.2748 68.6473 57.4213C69.2088 57.5629 69.7118 57.7631 70.1561 58.0219L69.4749 59.6113C69.055 59.4111 68.6668 59.267 68.3104 59.1791C67.9588 59.0864 67.6024 59.04 67.2411 59.04C66.2303 59.04 65.4613 59.3452 64.9339 59.9555C64.4115 60.5659 64.1502 61.4521 64.1502 62.6142C64.1502 63.7958 64.4115 64.6918 64.9339 65.3022C65.4613 65.9077 66.2303 66.2104 67.2411 66.2104C68.0223 66.2104 68.8377 66.0322 69.6873 65.6757L70.244 67.353C69.1453 67.8412 68.0443 68.0854 66.9408 68.0854C65.2806 68.0854 64.0086 67.6191 63.1248 66.6865C62.2411 65.749 61.7992 64.4062 61.7992 62.6581C61.7992 61.5302 62.0042 60.5561 62.4144 59.7358C62.8245 58.9155 63.4154 58.288 64.1869 57.8535C64.9632 57.4189 65.891 57.2016 66.9701 57.2016ZM74.5213 59.9555C75.6297 59.9555 76.4793 60.2289 77.0702 60.7758C77.661 61.3227 77.9564 62.1161 77.9564 63.1562V67.9682H76.096L75.8397 67.038C75.5174 67.3798 75.1536 67.6411 74.7484 67.8217C74.348 67.9975 73.9183 68.0854 73.4593 68.0854C72.6488 68.0854 72.0042 67.8754 71.5257 67.4555C71.0521 67.0356 70.8153 66.4716 70.8153 65.7636C70.8153 64.9433 71.1595 64.3036 71.848 63.8447C72.5413 63.3857 73.5081 63.1562 74.7484 63.1562H75.7078V62.9584C75.6786 62.0502 75.1634 61.5961 74.1624 61.5961C73.8206 61.5961 73.4251 61.6474 72.9759 61.7499C72.5267 61.8476 72.1214 61.9745 71.7601 62.1308L71.284 60.6147C71.8016 60.4047 72.346 60.2436 72.9173 60.1313C73.4886 60.0141 74.0233 59.9555 74.5213 59.9555ZM74.9388 64.3867C74.2992 64.3867 73.8011 64.4965 73.4447 64.7162C73.0931 64.936 72.9173 65.2411 72.9173 65.6318C72.9173 65.954 73.015 66.2006 73.2103 66.3715C73.4056 66.5375 73.6815 66.6205 74.0379 66.6205C74.3602 66.6205 74.6678 66.5497 74.9608 66.4081C75.2586 66.2665 75.5077 66.0761 75.7078 65.8369V64.3867H74.9388ZM81.9261 61.2006C82.4193 60.3901 83.1102 59.9848 83.9989 59.9848C84.1893 59.9848 84.3504 59.997 84.4823 60.0214C84.619 60.041 84.7923 60.08 85.0023 60.1386L84.7459 62.1015C84.326 61.9501 83.9549 61.8769 83.6327 61.8818C83.2811 61.8818 82.9832 61.9453 82.7391 62.0722C82.495 62.1943 82.2899 62.3896 82.1239 62.6581V67.9682H79.868V60.1093H81.6551L81.9261 61.2006Z" fill="#D30427"/>
</svg>
