<svg width="31" height="31" viewBox="0 0 31 31" fill="none" xmlns="http://www.w3.org/2000/svg">
<path d="M23.25 12.9167C22.9074 12.9167 22.5788 12.7806 22.3366 12.5383C22.0944 12.2961 21.9583 11.9676 21.9583 11.625C21.9583 11.2824 22.0944 10.9539 22.3366 10.7117C22.5788 10.4694 22.9074 10.3333 23.25 10.3333C23.5925 10.3333 23.9211 10.4694 24.1633 10.7117C24.4055 10.9539 24.5416 11.2824 24.5416 11.625C24.5416 11.9676 24.4055 12.2961 24.1633 12.5383C23.9211 12.7806 23.5925 12.9167 23.25 12.9167ZM15.5 12.9167H7.74996V6.45833H15.5M25.5362 9.33875L25.5491 9.32583L20.7441 4.52083L19.375 5.89L22.1004 8.61542C20.8862 9.04167 20.0208 10.2429 20.0208 11.625C20.0208 12.0491 20.1043 12.469 20.2666 12.8607C20.4289 13.2525 20.6667 13.6085 20.9666 13.9084C21.5722 14.514 22.3935 14.8542 23.25 14.8542C23.715 14.8542 24.1412 14.7508 24.5416 14.5829V23.8958C24.5416 24.2384 24.4055 24.5669 24.1633 24.8092C23.9211 25.0514 23.5925 25.1875 23.25 25.1875C22.9074 25.1875 22.5788 25.0514 22.3366 24.8092C22.0944 24.5669 21.9583 24.2384 21.9583 23.8958V18.0833C21.9583 17.3982 21.6861 16.7411 21.2017 16.2566C20.7172 15.7722 20.0601 15.5 19.375 15.5H18.0833V6.45833C18.0833 5.77319 17.8111 5.11611 17.3267 4.63164C16.8422 4.14717 16.1851 3.875 15.5 3.875H7.74996C6.31621 3.875 5.16663 5.02458 5.16663 6.45833V27.125H18.0833V17.4375H20.0208V23.8958C20.0208 24.7523 20.361 25.5736 20.9666 26.1792C21.5722 26.7848 22.3935 27.125 23.25 27.125C23.674 27.125 24.0939 27.0415 24.4857 26.8792C24.8775 26.7169 25.2335 26.4791 25.5333 26.1792C25.8332 25.8793 26.071 25.5234 26.2333 25.1316C26.3956 24.7398 26.4791 24.3199 26.4791 23.8958V11.625C26.4791 10.7337 26.1175 9.92 25.5362 9.33875Z" fill="#90D64A"/>
<path d="M9.44482 20.9229C10.2979 19.8768 10.9561 18.4307 11.3114 17.6462C11.9337 18.4307 13.2846 20.3993 13.7114 21.4459C14.2444 22.7535 12.9114 24.3231 11.3114 24.3231C9.7113 24.3231 8.37831 22.231 9.44482 20.9229Z" fill="#171616"/>
</svg>
