<svg width="155" height="155" viewBox="0 0 155 155" fill="none" xmlns="http://www.w3.org/2000/svg">
<g clip-path="url(#clip0_15_211)" filter="url(#filter0_d_15_211)">
<path fill-rule="evenodd" clip-rule="evenodd" d="M75.6875 55.75C73.1461 55.7502 70.6416 56.3582 68.383 57.5232C66.1243 58.6882 64.177 60.3764 62.7036 62.447C61.2301 64.5177 60.2731 66.9107 59.9126 69.4263C59.552 71.942 59.7983 74.5074 60.6308 76.9086C61.4634 79.3097 62.8581 81.477 64.6986 83.2295C66.539 84.982 68.7719 86.269 71.2109 86.983C73.65 87.697 76.2244 87.8175 78.7194 87.3342C81.2144 86.851 83.5577 85.7781 85.5537 84.205L92.4012 91.0525C92.7549 91.394 93.2285 91.583 93.7201 91.5788C94.2117 91.5745 94.682 91.3773 95.0296 91.0297C95.3773 90.682 95.5745 90.2117 95.5787 89.7201C95.583 89.2285 95.394 88.7549 95.0525 88.4012L88.205 81.5538C90.0575 79.2037 91.2109 76.3795 91.5333 73.4045C91.8557 70.4295 91.334 67.4238 90.0279 64.7314C88.7218 62.0391 86.6841 59.7688 84.1481 58.1804C81.612 56.5921 78.6799 55.7498 75.6875 55.75ZM63.5 71.6875C63.5 68.4552 64.784 65.3552 67.0696 63.0696C69.3552 60.784 72.4552 59.5 75.6875 59.5C78.9198 59.5 82.0198 60.784 84.3053 63.0696C86.591 65.3552 87.875 68.4552 87.875 71.6875C87.875 74.9198 86.591 78.0198 84.3053 80.3054C82.0198 82.591 78.9198 83.875 75.6875 83.875C72.4552 83.875 69.3552 82.591 67.0696 80.3054C64.784 78.0198 63.5 74.9198 63.5 71.6875Z" fill="url(#paint0_linear_15_211)"/>
</g>
<defs>
<filter id="filter0_d_15_211" x="-3" y="-3" width="163" height="163" filterUnits="userSpaceOnUse" color-interpolation-filters="sRGB">
<feFlood flood-opacity="0" result="BackgroundImageFix"/>
<feColorMatrix in="SourceAlpha" type="matrix" values="0 0 0 0 0 0 0 0 0 0 0 0 0 0 0 0 0 0 127 0" result="hardAlpha"/>
<feOffset dy="4"/>
<feGaussianBlur stdDeviation="29.5"/>
<feComposite in2="hardAlpha" operator="out"/>
<feColorMatrix type="matrix" values="0 0 0 0 0.827451 0 0 0 0 0.0156863 0 0 0 0 0.152941 0 0 0 1 0"/>
<feBlend mode="normal" in2="BackgroundImageFix" result="effect1_dropShadow_15_211"/>
<feBlend mode="normal" in="SourceGraphic" in2="effect1_dropShadow_15_211" result="shape"/>
</filter>
<linearGradient id="paint0_linear_15_211" x1="77.6651" y1="55.75" x2="77.6651" y2="91.5788" gradientUnits="userSpaceOnUse">
<stop stop-color="#FF002B"/>
<stop offset="1"/>
</linearGradient>
<clipPath id="clip0_15_211">
<rect width="45" height="45" fill="white" transform="translate(56 52)"/>
</clipPath>
</defs>
</svg>
