<svg width="24" height="24" viewBox="0 0 24 24" fill="none" xmlns="http://www.w3.org/2000/svg">
<path opacity="0.5" d="M17.966 6.55799L16.136 4.72799C14.591 3.18299 13.819 2.40999 12.816 2.12299C11.813 1.83499 10.748 2.08099 8.619 2.57299L7.391 2.85599C5.599 3.26899 4.703 3.47599 4.089 4.08899C3.476 4.70299 3.269 5.59899 2.856 7.39099L2.572 8.61899C2.081 10.749 1.835 11.813 2.122 12.816C2.41 13.819 3.183 14.591 4.728 16.136L6.558 17.966C9.248 20.657 10.592 22 12.262 22C13.933 22 15.277 20.655 17.966 17.966C20.657 15.277 22 13.933 22 12.262C22 10.592 20.655 9.24699 17.966 6.55799Z" fill="#90D64A"/>
<path d="M11.5154 14.4736C10.8424 13.8016 10.8484 12.8356 11.2504 12.0706C11.1507 11.9265 11.1045 11.752 11.12 11.5774C11.1355 11.4028 11.2116 11.2392 11.3352 11.1149C11.4588 10.9906 11.622 10.9135 11.7965 10.897C11.971 10.8805 12.1457 10.9256 12.2904 11.0246C12.6304 10.8446 13.0034 10.7486 13.3754 10.7526C13.5743 10.7544 13.7644 10.8352 13.9037 10.9772C14.043 11.1192 14.1203 11.3107 14.1184 11.5096C14.1166 11.7085 14.0358 11.8985 13.8938 12.0379C13.7518 12.1772 13.5603 12.2544 13.3614 12.2526C13.1299 12.2611 12.911 12.3607 12.7524 12.5296C12.3654 12.9166 12.4674 13.3046 12.5754 13.4136C12.6854 13.5226 13.0724 13.6236 13.4594 13.2366C14.2434 12.4526 15.5974 12.1926 16.4654 13.0596C17.1384 13.7326 17.1324 14.6986 16.7294 15.4636C16.8286 15.6077 16.8742 15.782 16.8584 15.9562C16.8427 16.1304 16.7665 16.2937 16.6431 16.4177C16.5197 16.5417 16.3568 16.6186 16.1827 16.6352C16.0085 16.6518 15.834 16.607 15.6894 16.5086C15.2407 16.7547 14.7201 16.8367 14.2174 16.7406C14.1209 16.7207 14.0292 16.6821 13.9476 16.6268C13.8661 16.5716 13.7962 16.5008 13.7419 16.4185C13.6877 16.3363 13.6502 16.2441 13.6316 16.1473C13.613 16.0506 13.6136 15.9511 13.6334 15.8546C13.6533 15.7581 13.6919 15.6664 13.7472 15.5848C13.8024 15.5032 13.8732 15.4333 13.9555 15.3791C14.0377 15.3249 14.1299 15.2874 14.2267 15.2687C14.3234 15.2501 14.4229 15.2507 14.5194 15.2706C14.6964 15.3076 14.9824 15.2496 15.2274 15.0046C15.6154 14.6166 15.5134 14.2296 15.4044 14.1206C15.2954 14.0116 14.9084 13.9106 14.5204 14.2976C13.7364 15.0816 12.3824 15.3416 11.5154 14.4736ZM10.3894 10.4386C10.5804 10.2541 10.7328 10.0334 10.8376 9.78939C10.9424 9.54538 10.9976 9.28294 10.9999 9.01738C11.0022 8.75182 10.9516 8.48846 10.8511 8.24267C10.7505 7.99688 10.602 7.77357 10.4142 7.58579C10.2264 7.398 10.0031 7.24949 9.75733 7.14893C9.51154 7.04837 9.24818 6.99777 8.98262 7.00008C8.71706 7.00238 8.45462 7.05756 8.21061 7.16237C7.96661 7.26719 7.74592 7.41956 7.56142 7.61058C7.19711 7.98778 6.99552 8.49299 7.00008 9.01738C7.00463 9.54177 7.21497 10.0434 7.58579 10.4142C7.9566 10.785 8.45823 10.9954 8.98262 10.9999C9.50701 11.0045 10.0122 10.8029 10.3894 10.4386Z" fill="#90D64A"/>
</svg>
